<?xml version="1.0" encoding="UTF-8"?>
<svg width="290px" height="91px" viewBox="0 0 290 91" version="1.1" xmlns="http://www.w3.org/2000/svg" xmlns:xlink="http://www.w3.org/1999/xlink">
    <title>Group 69</title>
    <defs>
        <polygon id="path-1" points="0 89 289.740018 89 289.740018 0.223511364 0 0.223511364"></polygon>
    </defs>
    <g id="Page-1" stroke="none" stroke-width="1" fill="none" fill-rule="evenodd">
        <g id="Hello-Home-Page-Copy-3" transform="translate(-240.000000, -78.000000)">
            <g id="Group-69" transform="translate(240.000000, 78.500000)">
                <polygon id="Fill-1" fill="#020203" points="0 44.5 14.291731 69.2355504 17.8074032 75.319341 21.322572 81.4021255 24.8382442 87.486922 24.8452916 87.5 29.9848983 87.5 30 87.5 29.9934559 87.486922 26.4772804 81.4021255 22.9626149 75.319341 19.4464394 69.2355504 5.15470837 44.5"></polygon>
                <polygon id="Fill-2" fill="#020203" points="28.8076078 75.319341 32.3217108 81.4021255 35.8378274 87.486419 35.8448747 87.5 40.9838918 87.5 41 87.5 40.9929527 87.486419 37.4763327 81.4021255 33.9622296 75.319341 30.4461131 69.2350474 16.1546219 44.5 11 44.5 25.2914912 69.2350474"></polygon>
                <polygon id="Fill-3" fill="#E20714" points="46.6239894 87.4873348 50.1373562 81.276333 53.6502213 75.0683708 57.1630865 68.8578756 78 32.0295732 75.3840366 27.5 54.547123 64.3277958 51.0337563 70.5387977 47.5213927 76.7472664 44.008026 82.9582682 44 82.9709334 46.6079374 87.4863216 46.6159634 87.5"></polygon>
                <g id="Group-68" transform="translate(0.000000, 0.500000)">
                    <path d="M117.652389,59.227275 C117.293705,58.272042 116.64146,57.2718034 115.684968,56.2245364 L107.530372,48.4355193 C106.879144,47.8428602 106.458389,47.2855989 106.279302,46.7778943 C106.091056,46.2433886 105.995407,45.4732352 105.995407,44.4876614 C105.995407,43.6072693 106.276249,42.941792 106.853196,42.4527977 C107.452021,41.9471159 108.401389,41.6902295 109.674337,41.6902295 C110.946267,41.6902295 111.895126,41.9471159 112.493442,42.4517864 C113.070898,42.9422977 113.352758,43.6229455 113.352758,44.5321614 L113.352758,49.1525761 L117.734302,49.1525761 L117.734302,44.7131955 C117.734302,41.5531898 116.3596,37.7863659 109.811705,37.7863659 C107.123863,37.7863659 105.069951,38.391667 103.703898,39.5850761 C102.316477,40.8002295 101.612846,42.5251102 101.612846,44.7131955 C101.612846,46.1382068 101.802109,47.3452693 102.176056,48.2994909 C102.555091,49.2638261 103.2516,50.2529398 104.249811,51.2450875 L112.253811,59.0194398 C112.886214,59.648508 113.306968,60.2376273 113.502337,60.7706159 C113.704319,61.3192807 113.807091,62.0874114 113.807091,63.0532636 C113.807091,63.9119114 113.508951,64.5662636 112.894354,65.0537409 C112.249232,65.5675136 111.240846,65.8279398 109.901758,65.8279398 C108.559618,65.8279398 107.551232,65.5675136 106.907635,65.0532352 C106.293547,64.5662636 105.995407,63.8891557 105.995407,62.986008 L105.995407,58.3655932 L101.612846,58.3655932 L101.612846,62.8049739 C101.612846,65.9649795 103.050635,69.7312977 109.901758,69.7312977 C116.752372,69.7312977 118.19067,65.9649795 118.19067,62.8049739 C118.19067,61.3850193 118.009039,60.1814966 117.652389,59.227275" id="Fill-4" fill="#020203"></path>
                    <polygon id="Fill-6" fill="#020203" points="139.064514 38.4651932 133.745304 52.521125 128.424567 38.4651932 123.764725 38.4651932 131.553005 58.0330568 131.553005 69.052875 135.936584 69.052875 135.936584 58.0785682 143.7269 38.4651932"></polygon>
                    <path d="M165.742275,47.7960847 L165.742275,44.7129426 C165.742275,42.5228347 165.030504,40.7964369 163.625275,39.5828006 C162.245486,38.3909085 160.214977,37.7866188 157.590732,37.7866188 C154.962925,37.7866188 152.946661,38.3924256 151.593837,39.5878574 C150.223714,40.8009881 149.52924,42.5253631 149.52924,44.7129426 L149.52924,62.8052267 C149.52924,67.3361358 152.017135,69.7315506 156.724802,69.7315506 C158.047609,69.7315506 159.287486,69.3735278 160.413398,68.6670903 C161.201486,68.1710165 161.887819,67.5520619 162.462223,66.819329 L163.37496,69.0529256 L165.742275,69.0529256 L165.742275,52.9378574 L156.263346,52.9378574 L156.263346,56.841721 L161.360732,56.841721 L161.360732,61.9005619 C161.360732,62.6879085 160.866205,63.5460506 159.889872,64.4491983 C158.887591,65.3771244 157.845118,65.8276869 156.702925,65.8276869 C155.617205,65.8276869 154.879995,65.5869824 154.515714,65.1121472 C154.114802,64.5892722 153.911293,63.8130506 153.911293,62.8052267 L153.911293,44.7129426 C153.911293,43.4153631 154.296942,41.6899767 157.634486,41.6899767 C160.975082,41.6899767 161.360732,43.4153631 161.360732,44.7129426 L161.360732,47.7960847 L165.742275,47.7960847 Z" id="Fill-8" fill="#020203"></path>
                    <polygon id="Fill-10" fill="#020203" points="190.576196 38.4651932 185.805442 56.1559659 181.074881 38.4651932 175.238758 38.4651932 175.238758 69.052875 179.620811 69.052875 179.620811 48.6577159 183.886863 64.5305625 187.763705 64.5305625 192.029249 48.6577159 192.029249 69.052875 196.412828 69.052875 196.412828 38.4651932"></polygon>
                    <path d="M216.495226,58.3655426 L210.532928,58.3655426 L213.513314,45.2810256 L216.495226,58.3655426 Z M216.404156,38.4649403 L210.669788,38.4649403 L203.709788,69.0531278 L208.122367,69.0531278 L209.669033,62.2689006 L217.403893,62.2689006 L218.951577,69.0531278 L223.365174,69.0531278 L216.404156,38.4649403 Z" id="Fill-12" fill="#020203"></path>
                    <polygon id="Fill-14" fill="#E20714" points="235.044084 65.1492642 235.044084 38.4649403 230.66254 38.4649403 230.66254 69.0531278 243.371663 69.0531278 243.371663 65.1492642"></polygon>
                    <path d="M259.815375,58.3655426 L253.851551,58.3655426 L256.832954,45.2810256 L259.815375,58.3655426 Z M259.723796,38.4649403 L253.989428,38.4649403 L247.028411,69.0531278 L251.440989,69.0531278 L252.988674,62.2689006 L260.723533,62.2689006 L262.271218,69.0531278 L266.684814,69.0531278 L259.723796,38.4649403 Z" id="Fill-16" fill="#E20714"></path>
                    <path d="M278.363216,51.3546688 L278.363216,42.3687028 L281.451461,42.3687028 C282.568216,42.3687028 283.402602,42.6650324 284.00397,43.2753903 C284.607882,43.8892881 284.901953,44.5810608 284.901953,45.3916688 L284.901953,48.1056631 C284.901953,48.9557142 284.602795,49.6985608 283.987689,50.3746574 C283.387847,51.0335608 282.559058,51.3546688 281.451461,51.3546688 L278.363216,51.3546688 Z M285.357812,58.0559642 L285.357812,62.1267028 C285.357812,62.9641119 285.065268,63.6624585 284.463391,64.2611858 C283.861514,64.8589017 283.025093,65.1491631 281.905286,65.1491631 L278.363216,65.1491631 L278.363216,54.8064528 L281.905286,54.8064528 C282.981847,54.8064528 283.804023,55.1346403 284.420146,55.8092199 C285.051532,56.5025097 285.357812,57.2372653 285.357812,58.0559642 L285.357812,58.0559642 Z M286.964005,52.9809415 C288.505075,52.0004244 289.285023,50.3670722 289.285023,48.1056631 L289.285023,45.3916688 C289.285023,43.2384756 288.599707,41.5237085 287.246882,40.2938903 C285.910847,39.0807597 283.960725,38.4653449 281.451461,38.4653449 L273.981163,38.4653449 L273.981163,69.0530267 L281.905286,69.0530267 C284.447111,69.0530267 286.404356,68.4451972 287.723602,67.2467313 C289.061163,66.0341063 289.739356,64.3112483 289.739356,62.1267028 L289.739356,58.0559642 C289.739356,55.6605494 288.786426,53.9311176 286.964005,52.9809415 L286.964005,52.9809415 Z" id="Fill-18" fill="#E20714"></path>
                    <polygon id="Fill-20" fill="#020203" points="206.626882 85.8032312 206.626882 86.7529017 203.920216 86.7529017 203.920216 85.8032312 204.715935 85.8032312 204.715935 77.4154869 203.920216 77.4154869 203.920216 76.4658165 206.626882 76.4658165 206.626882 77.4154869 205.830654 77.4154869 205.830654 85.8032312"></polygon>
                    <polygon id="Fill-22" fill="#020203" points="210.447607 86.7528511 209.333396 86.7528511 209.333396 76.4657659 210.447607 76.4657659 213.902677 84.3791807 213.902677 76.4657659 215.017396 76.4657659 215.017396 86.7528511 213.902677 86.7528511 210.447607 78.839942"></polygon>
                    <polygon id="Fill-24" fill="#020203" points="219.316367 86.7528511 218.202156 86.7528511 218.202156 76.4657659 222.580647 76.4657659 222.580647 77.4154364 219.316367 77.4154364 219.316367 81.0553341 221.943665 81.0553341 221.943665 82.0050045 219.316367 82.0050045"></polygon>
                    <path d="M228.86973,84.7745733 L228.86973,78.4439426 C228.86973,77.5999597 228.338572,77.178221 227.277782,77.178221 C226.215975,77.178221 225.685326,77.5999597 225.685326,78.4439426 L225.685326,84.7745733 C225.685326,85.6190619 226.215975,86.0408006 227.277782,86.0408006 C228.338572,86.0408006 228.86973,85.6190619 228.86973,84.7745733 M229.984449,78.4439426 L229.984449,84.7745733 C229.984449,85.4810108 229.759063,86.0276528 229.307274,86.4124767 C228.856502,86.7973006 228.182379,86.990471 227.285923,86.990471 C226.388449,86.990471 225.711782,86.7973006 225.255414,86.4124767 C224.799046,86.0276528 224.570607,85.4810108 224.570607,84.7745733 L224.570607,78.4439426 C224.570607,77.7380108 224.795993,77.1918744 225.247782,76.8065449 C225.699063,76.4212153 226.372168,76.2290562 227.269133,76.2290562 C228.166098,76.2290562 228.843274,76.4212153 229.299642,76.8065449 C229.756011,77.1918744 229.984449,77.7380108 229.984449,78.4439426" id="Fill-26" fill="#020203"></path>
                    <path d="M236.751218,80.8975108 L236.751218,78.6816131 C236.751218,78.2811131 236.629112,77.9696131 236.384902,77.7481244 C236.1412,77.5266358 235.790656,77.4153858 235.334288,77.4153858 L234.04506,77.4153858 L234.04506,82.1632324 L235.334288,82.1632324 C236.278568,82.1632324 236.751218,81.7414937 236.751218,80.8975108 L236.751218,80.8975108 Z M234.04506,86.7528006 L232.929832,86.7528006 L232.929832,76.4657153 L235.334288,76.4657153 C236.16206,76.4657153 236.791411,76.6614142 237.220814,77.0523063 C237.651235,77.4421869 237.865937,77.9852892 237.865937,78.6816131 L237.865937,80.8975108 C237.865937,81.9736017 237.398375,82.6593063 236.464779,82.9546244 L238.423042,86.7528006 L237.197411,86.7528006 L235.334288,83.1129028 L234.04506,83.1129028 L234.04506,86.7528006 Z" id="Fill-28" fill="#020203"></path>
                    <polygon id="Fill-30" fill="#020203" points="241.766895 86.7528511 240.652175 86.7528511 240.652175 76.4657659 242.324 76.4657659 244.138789 83.2555557 245.96986 76.4657659 247.641684 76.4657659 247.641684 86.7528511 246.526965 86.7528511 246.526965 78.2386864 244.664351 85.1705727 243.629 85.1705727 241.766895 78.2386864"></polygon>
                    <path d="M253.039398,77.7009443 L251.733889,83.429308 L254.344398,83.429308 L253.039398,77.7009443 Z M252.211118,76.4660693 L253.882942,76.4660693 L256.223802,86.7526489 L255.109082,86.7526489 L254.568258,84.3789784 L251.526819,84.3789784 L250.985486,86.7526489 L249.870258,86.7526489 L252.211118,76.4660693 Z" id="Fill-32" fill="#020203"></path>
                    <polygon id="Fill-34" fill="#020203" points="261.637339 76.4659176 261.637339 77.4155881 259.567654 77.4155881 259.567654 86.7530028 258.452426 86.7530028 258.452426 77.4155881 256.382742 77.4155881 256.382742 76.4659176"></polygon>
                    <polygon id="Fill-36" fill="#020203" points="265.936054 85.8032312 265.936054 86.7529017 263.229388 86.7529017 263.229388 85.8032312 264.025616 85.8032312 264.025616 77.4154869 263.229388 77.4154869 263.229388 76.4658165 265.936054 76.4658165 265.936054 77.4154869 265.140335 77.4154869 265.140335 85.8032312"></polygon>
                    <path d="M272.703128,84.7745733 L272.703128,78.4439426 C272.703128,77.5999597 272.17197,77.178221 271.110672,77.178221 C270.049374,77.178221 269.518725,77.5999597 269.518725,78.4439426 L269.518725,84.7745733 C269.518725,85.6190619 270.049374,86.0408006 271.110672,86.0408006 C272.17197,86.0408006 272.703128,85.6190619 272.703128,84.7745733 M273.817339,78.4439426 L273.817339,84.7745733 C273.817339,86.0716472 273.100988,86.8003347 271.668286,86.9586131 L272.146023,88.9995449 L271.190549,88.9995449 L270.712812,86.9742892 C269.173777,86.8478688 268.404005,86.1146301 268.404005,84.7745733 L268.404005,78.4439426 C268.404005,77.7380108 268.629391,77.1918744 269.080672,76.8065449 C269.531953,76.4212153 270.205567,76.2290563 271.102532,76.2290563 C271.999496,76.2290563 272.676163,76.4212153 273.13304,76.8065449 C273.589409,77.1918744 273.817339,77.7380108 273.817339,78.4439426" id="Fill-38" fill="#020203"></path>
                    <path d="M280.903107,84.7745733 L280.903107,76.4657153 L282.017318,76.4657153 L282.017318,84.7745733 C282.017318,85.4810108 281.791932,86.0276528 281.34116,86.4124767 C280.88937,86.7973006 280.215756,86.990471 279.318791,86.990471 C278.421826,86.990471 277.744651,86.7973006 277.288791,86.4124767 C276.831914,86.0276528 276.603984,85.4810108 276.603984,84.7745733 L276.603984,76.4657153 L277.718195,76.4657153 L277.718195,84.7745733 C277.718195,85.6190619 278.249353,86.0408006 279.31116,86.0408006 C280.371949,86.0408006 280.903107,85.6190619 280.903107,84.7745733" id="Fill-40" fill="#020203"></path>
                    <polygon id="Fill-42" fill="#020203" points="289.740018 86.7528511 285.042526 86.7528511 285.042526 76.4657659 289.580772 76.4657659 289.580772 77.4154364 286.157246 77.4154364 286.157246 81.0553341 288.943789 81.0553341 288.943789 82.0050045 286.157246 82.0050045 286.157246 85.8031807 289.740018 85.8031807"></polygon>
                    <path d="M80.3160088,9.28846477 C79.1468509,10.4505216 77.1092193,10.4505216 75.9400614,9.28795909 C75.3554825,8.70794205 75.0334298,7.93526023 75.0334298,7.11352727 C75.0334298,6.2923 75.3554825,5.51961818 75.9400614,4.93858977 C76.5241316,4.35806705 77.3015351,4.03797045 78.1277807,4.03797045 C78.9545351,4.03797045 79.7319386,4.35806705 80.3160088,4.93858977 C80.9005877,5.51961818 81.2221316,6.2923 81.2221316,7.11352727 C81.2221316,7.93526023 80.9005877,8.70743636 80.3160088,9.28846477 M82.5011842,2.76668636 C81.5172193,1.78819205 80.2590263,1.17985682 78.8985702,1.0134875 L78.8985702,0.965953409 L77.3569912,0.965953409 L77.3569912,1.0134875 C75.9965351,1.17985682 74.7388509,1.78819205 73.7543772,2.76668636 C72.5862368,3.92773182 71.9426404,5.47157841 71.9426404,7.11352727 C71.9426404,8.52033409 72.4183421,9.85331136 73.2883421,10.9369875 L58.6016228,36.4835273 L55.0381842,42.6831864 L51.4752544,48.8793057 L47.9123246,55.0794705 L47.9041842,55.0926182 L47.9062193,55.096158 L44.9126053,60.3051864 L41.3496754,66.5018114 L37.7867456,72.7019761 L37.7786053,72.7146182 L40.4237105,77.2217602 L40.4318509,77.2359193 L40.4399912,77.2227716 L44.0034298,71.0236182 L47.5658509,64.8269932 L51.1292895,58.6268284 L72.2631667,21.8662886 L72.2606228,21.8617375 L77.2430263,13.1953625 C77.2811842,13.2004193 77.3188333,13.2090159 77.3569912,13.2140727 L77.3569912,13.2611011 L78.8985702,13.2611011 L78.8985702,13.2140727 C80.2590263,13.0471977 81.5172193,12.4388625 82.5011842,11.4603682 C83.6698333,10.2998284 84.3129211,8.75547614 84.3129211,7.11352727 C84.3129211,5.47157841 83.6698333,3.92773182 82.5011842,2.76668636" id="Fill-44" fill="#E20714"></path>
                    <mask id="mask-2" fill="white">
                        <use xlink:href="#path-1"></use>
                    </mask>
                    <g id="Clip-47"></g>
                    <polygon id="Fill-46" fill="#E20714" mask="url(#mask-2)" points="85.3317368 32.0809602 91.1556491 32.0809602 91.1556491 26.2924205 85.3317368 26.2924205"></polygon>
                    <polygon id="Fill-48" fill="#E20714" mask="url(#mask-2)" points="77.7764737 23.9455511 83.600386 23.9455511 83.600386 18.1570114 77.7764737 18.1570114"></polygon>
                    <polygon id="Fill-49" fill="#E20714" mask="url(#mask-2)" points="92.4637018 20.2460841 88.3457018 16.1530955 92.4637018 12.0596011 96.5822105 16.1530955"></polygon>
                    <path d="M105.627209,84.5977869 L105.627209,78.8052017 C105.627209,78.470946 105.503577,78.1791676 105.256823,77.9283494 C105.010068,77.6775313 104.666139,77.5521222 104.225542,77.5521222 L102.791823,77.5521222 L102.791823,85.8508665 L104.225542,85.8508665 C104.666139,85.8508665 105.010068,85.7274801 105.256823,85.4822244 C105.503577,85.2374744 105.627209,84.9426619 105.627209,84.5977869 M104.225542,86.7899176 L101.689314,86.7899176 L101.689314,76.613071 L104.225542,76.613071 C105.044156,76.613071 105.666893,76.8067472 106.091718,77.1925824 C106.51756,77.5784176 106.729718,78.1164631 106.729718,78.8052017 L106.729718,84.5977869 C106.729718,85.2976506 106.519595,85.8372131 106.099858,86.2184972 C105.680121,86.5992756 105.05484,86.7899176 104.225542,86.7899176" id="Fill-50" fill="#020203" mask="url(#mask-2)"></path>
                    <polygon id="Fill-51" fill="#020203" mask="url(#mask-2)" points="111.849235 85.8506136 111.849235 86.7896648 109.17106 86.7896648 109.17106 85.8506136 109.958639 85.8506136 109.958639 77.552375 109.17106 77.552375 109.17106 76.6128182 111.849235 76.6128182 111.849235 77.552375 111.062165 77.552375 111.062165 85.8506136"></polygon>
                    <path d="M116.622432,82.5622153 L116.622432,81.6231642 L119.489361,81.6231642 L119.489361,86.7897153 L119.016712,86.7897153 L118.606642,85.7879597 C118.386853,86.1636812 118.097361,86.4640562 117.740712,86.6880733 C117.383046,86.912596 116.994853,87.0248574 116.575116,87.0248574 C115.052361,87.0248574 114.29073,86.2946528 114.29073,84.832221 L114.29073,78.5698574 C114.29073,77.8710051 114.50594,77.3309369 114.93687,76.9496528 C115.367291,76.5683688 116.013432,76.3782324 116.874274,76.3782324 C117.735625,76.3782324 118.386853,76.5683688 118.827449,76.9496528 C119.268046,77.3309369 119.489361,77.8710051 119.489361,78.5698574 L119.489361,79.4315392 L118.386853,79.4315392 L118.386853,78.5698574 C118.386853,77.7354824 117.887239,77.3172835 116.889537,77.3172835 C115.891835,77.3172835 115.393747,77.7354824 115.393747,78.5698574 L115.393747,84.832221 C115.393747,85.2291812 115.477186,85.5371415 115.645081,85.7561017 C115.812975,85.9760733 116.120782,86.0853006 116.566975,86.0853006 C117.013168,86.0853006 117.427818,85.9078062 117.81194,85.5533233 C118.195046,85.197829 118.386853,84.8534597 118.386853,84.5197097 L118.386853,82.5622153 L116.622432,82.5622153 Z" id="Fill-52" fill="#020203" mask="url(#mask-2)"></path>
                    <polygon id="Fill-53" fill="#020203" mask="url(#mask-2)" points="124.608268 85.8506136 124.608268 86.7896648 121.930093 86.7896648 121.930093 85.8506136 122.718181 85.8506136 122.718181 77.552375 121.930093 77.552375 121.930093 76.6128182 124.608268 76.6128182 124.608268 77.552375 123.820689 77.552375 123.820689 85.8506136"></polygon>
                    <polygon id="Fill-54" fill="#020203" mask="url(#mask-2)" points="131.381295 76.613071 131.381295 77.5521222 129.333996 77.5521222 129.333996 86.7899176 128.231488 86.7899176 128.231488 77.5521222 126.183172 77.5521222 126.183172 76.613071"></polygon>
                    <path d="M134.988386,77.8342926 L133.697123,83.5019744 L136.280158,83.5019744 L134.988386,77.8342926 Z M134.169772,76.613071 L135.823789,76.613071 L138.138702,86.7899176 L137.036193,86.7899176 L136.500965,84.4410256 L133.492596,84.4410256 L132.956351,86.7899176 L131.853842,86.7899176 L134.169772,76.613071 Z" id="Fill-55" fill="#020203" mask="url(#mask-2)"></path>
                    <polygon id="Fill-56" fill="#020203" mask="url(#mask-2)" points="140.343923 86.7899176 140.343923 76.613071 141.446432 76.613071 141.446432 85.8508665 144.329642 85.8508665 144.329642 86.7899176"></polygon>
                    <path d="M153.591377,84.895583 L153.591377,82.0925886 L151.559851,82.0925886 C150.834851,82.0925886 150.472605,82.5365773 150.472605,83.4240489 L150.472605,84.895583 C150.472605,85.2713045 150.603868,85.563083 150.866904,85.7719295 C151.128412,85.9807761 151.517623,86.0854523 152.0325,86.0854523 C152.54636,86.0854523 152.935061,85.9807761 153.198096,85.7719295 C153.460114,85.563083 153.591377,85.2713045 153.591377,84.895583 M149.370096,84.8323727 L149.370096,83.4240489 C149.370096,82.3069977 149.748114,81.6076398 150.504149,81.3254693 C149.957728,80.480475 149.685026,79.822583 149.685026,79.3528045 L149.685026,78.5700091 C149.685026,77.8706511 149.902781,77.3310886 150.338798,76.9498045 C150.774307,76.5685205 151.433675,76.3778784 152.315886,76.3778784 C154.006026,76.3778784 154.852114,77.1096 154.852114,78.5700091 L154.852114,79.9009636 L153.749605,79.9009636 L153.749605,78.5073045 C153.749605,78.1320886 153.625465,77.8398045 153.378711,77.630958 C153.131956,77.4221114 152.76157,77.3174352 152.26857,77.3174352 C151.775061,77.3174352 151.404167,77.4221114 151.157921,77.630958 C150.910658,77.8398045 150.787535,78.1320886 150.787535,78.5073045 L150.787535,79.3528045 C150.787535,79.7285261 151.076518,80.3292761 151.653974,81.1535375 L155.969886,81.1535375 L155.969886,82.0925886 L154.694395,82.0925886 L154.694395,84.8323727 C154.694395,86.2948045 153.807096,87.0250091 152.0325,87.0250091 C150.257395,87.0250091 149.370096,86.2948045 149.370096,84.8323727" id="Fill-57" fill="#020203" mask="url(#mask-2)"></path>
                    <path d="M165.122184,81.4664028 L165.122184,78.8049994 C165.122184,78.4085449 165.001605,78.1005847 164.75943,77.8811187 C164.518272,77.6626642 164.171798,77.5524256 163.720009,77.5524256 L162.444518,77.5524256 L162.444518,82.7194824 L163.720009,82.7194824 C164.654623,82.7194824 165.122184,82.3012835 165.122184,81.4664028 L165.122184,81.4664028 Z M162.444518,86.7897153 L161.3415,86.7897153 L161.3415,76.6128687 L163.720009,76.6128687 C164.539132,76.6128687 165.16136,76.8065449 165.586693,77.1928858 C166.012535,77.578721 166.224693,78.1162608 166.224693,78.8049994 L166.224693,81.4664028 C166.224693,82.1662665 166.01457,82.705829 165.594833,83.0866074 C165.174588,83.4683972 164.549816,83.6585335 163.720009,83.6585335 L162.444518,83.6585335 L162.444518,86.7897153 Z" id="Fill-58" fill="#020203" mask="url(#mask-2)"></path>
                    <path d="M172.525732,80.9967761 L172.525732,78.8051511 C172.525732,78.4086966 172.404644,78.1002307 172.162977,77.8812705 C171.921819,77.6623102 171.574837,77.5520716 171.123556,77.5520716 L169.847047,77.5520716 L169.847047,82.2498557 L171.123556,82.2498557 C172.057661,82.2498557 172.525732,81.8316568 172.525732,80.9967761 L172.525732,80.9967761 Z M169.847047,86.789867 L168.744539,86.789867 L168.744539,76.6130205 L171.123556,76.6130205 C171.942679,76.6130205 172.564907,76.8066966 172.989732,77.1930375 C173.415065,77.578367 173.62824,78.1164125 173.62824,78.8051511 L173.62824,80.9967761 C173.62824,82.0612364 173.166275,82.7398614 172.241837,83.0321455 L174.17924,86.789867 L172.966328,86.789867 L171.123556,83.1889068 L169.847047,83.1889068 L169.847047,86.789867 Z" id="Fill-59" fill="#020203" mask="url(#mask-2)"></path>
                    <polygon id="Fill-60" fill="#020203" mask="url(#mask-2)" points="178.589275 85.8506136 178.589275 86.7896648 175.911609 86.7896648 175.911609 85.8506136 176.699696 85.8506136 176.699696 77.552375 175.911609 77.552375 175.911609 76.6128182 178.589275 76.6128182 178.589275 77.552375 177.802205 77.552375 177.802205 85.8506136"></polygon>
                    <polygon id="Fill-61" fill="#020203" mask="url(#mask-2)" points="182.369756 86.7899176 181.267247 86.7899176 181.267247 76.613071 182.369756 76.613071 185.788195 84.4410256 185.788195 76.613071 186.890704 76.613071 186.890704 86.7899176 185.788195 86.7899176 182.369756 78.9619631"></polygon>
                    <polygon id="Fill-62" fill="#020203" mask="url(#mask-2)" points="194.136125 76.613071 194.136125 77.5521222 192.088826 77.5521222 192.088826 86.7899176 190.986318 86.7899176 190.986318 77.5521222 188.938002 77.5521222 188.938002 76.613071"></polygon>
                    <polygon id="Fill-63" fill="#232020" mask="url(#mask-2)" points="198.173484 86.8462 197.441361 86.8462 199.882958 76.5302909 200.616098 76.5302909"></polygon>
                    <path d="M114.409986,20.5826153 L108.509758,20.5826153 L111.460635,7.63766648 L114.409986,20.5826153 Z M114.319933,0.894905114 L108.646618,0.894905114 L101.760389,31.1559165 L106.125144,31.1559165 L107.65553,24.4440017 L115.308986,24.4440017 L116.838863,31.1559165 L121.204635,31.1559165 L114.319933,0.894905114 Z" id="Fill-64" fill="#020203" mask="url(#mask-2)"></path>
                    <polygon id="Fill-65" fill="#E20714" mask="url(#mask-2)" points="143.976351 0.894854545 139.392825 0.894854545 134.873912 10.8669 130.437421 0.894854545 125.854912 0.894854545 132.419596 15.5768205 125.402105 31.1558659 129.98614 31.1558659 134.688719 20.6907807 139.391298 31.1558659 143.973807 31.1558659 137.183228 15.9813659"></polygon>
                    <polygon id="Fill-66" fill="#020203" mask="url(#mask-2)" points="155.358647 27.2937716 155.358647 17.7328455 163.237489 17.7328455 163.237489 13.8709534 155.358647 13.8709534 155.358647 4.75705 165.037016 4.75705 165.037016 0.894652273 151.023402 0.894652273 151.023402 31.1561693 165.488296 31.1561693 165.488296 27.2937716"></polygon>
                    <path d="M188.275784,21.4344869 C187.920661,20.490379 187.27503,19.5007597 186.33024,18.4646176 L178.261626,10.7590381 C177.616504,10.1714358 177.199819,9.62024261 177.024293,9.11911193 C176.838082,8.59016875 176.742942,7.82810625 176.742942,6.8531517 C176.742942,5.98186193 177.020732,5.32295852 177.5931,4.8395267 C178.184293,4.3389017 179.123486,4.08555511 180.382696,4.08555511 C181.642416,4.08555511 182.580591,4.3389017 183.171784,4.8395267 C183.744153,5.3234642 184.021942,5.9965267 184.021942,6.89714602 L184.021942,11.468004 L188.357696,11.468004 L188.357696,7.07615739 C188.357696,3.95003239 186.997749,0.223663068 180.517012,0.223663068 C177.860205,0.223663068 175.82817,0.822390341 174.477381,2.00315739 C173.103696,3.20314034 172.407188,4.90981648 172.407188,7.07615739 C172.407188,8.48751534 172.595942,9.68092443 172.965819,10.6230097 C173.33824,11.5747028 174.0261,12.5537028 175.01617,13.5377597 L182.934696,21.2291801 C183.559977,21.8516744 183.976661,22.4347256 184.169995,22.961646 C184.369942,23.5047483 184.471188,24.2647881 184.471188,25.2205267 C184.471188,26.0695665 184.176609,26.7168392 183.568118,27.1997653 C182.931135,27.7079756 181.933942,27.9653676 180.607574,27.9653676 C179.280696,27.9653676 178.283504,27.7079756 177.646521,27.198754 C177.03803,26.7168392 176.742942,26.0478222 176.742942,25.153271 L176.742942,20.5824131 L172.407188,20.5824131 L172.407188,24.9742597 C172.407188,28.1008903 173.829205,31.8272597 180.607574,31.8272597 C187.384925,31.8272597 188.80796,28.1008903 188.80796,24.9742597 C188.80796,23.5664415 188.628363,22.3755608 188.275784,21.4344869" id="Fill-67" fill="#020203" mask="url(#mask-2)"></path>
                </g>
            </g>
        </g>
    </g>
</svg>